PathFileType  4	(X/Y/Z) C:\Users\antoi\Documents\MyRepositories\mobilecap\ResultsAnalysis
DataRate	CameraRate	NumFrames	NumMarkers	Units	OrigDataRate	OrigDataStartFrame	OrigNumFrames
100.0	100.0	5	51	mm	100.0	1	134
Frame#	Time	r_knee			r_shank_antsup			r_ankle			r_calc			r_5meta			r_toe			L_knee			L_shank_antsup			L_ankle			L_calc			L_5meta			L_toe			r_sh2			r_sh3			r_sh4			L_sh2			L_sh3			r_thigh1			r_thigh2			r_thigh3			r_thigh4			r_thigh5			L_thigh1			L_thigh2			L_thigh3			L_thigh4			r.ASIS			r.PSIS			L.ASIS			L.PSIS			C7			R_Shoulder			L_Shoulder			R_Sternum			L_Sternum			R_humerus			R_elbow_med			R_elbow_lat			R_forearm			R_wrist_radius			R_wrist_ulna			L_humerus			L_elbow_med			L_elbow_lat			L_forearm			L_wrist_radius			L_wrist_ulna			R_HJC			L_HJC			R_HJC_reg			L_HJC_reg			
		X1	Y1	Z1	X2	Y2	Z2	X3	Y3	Z3	X4	Y4	Z4	X5	Y5	Z5	X6	Y6	Z6	X7	Y7	Z7	X8	Y8	Z8	X9	Y9	Z9	X10	Y10	Z10	X11	Y11	Z11	X12	Y12	Z12	X13	Y13	Z13	X14	Y14	Z14	X15	Y15	Z15	X16	Y16	Z16	X17	Y17	Z17	X18	Y18	Z18	X19	Y19	Z19	X20	Y20	Z20	X21	Y21	Z21	X22	Y22	Z22	X23	Y23	Z23	X24	Y24	Z24	X25	Y25	Z25	X26	Y26	Z26	X27	Y27	Z27	X28	Y28	Z28	X29	Y29	Z29	X30	Y30	Z30	X31	Y31	Z31	X32	Y32	Z32	X33	Y33	Z33	X34	Y34	Z34	X35	Y35	Z35	X36	Y36	Z36	X37	Y37	Z37	X38	Y38	Z38	X39	Y39	Z39	X40	Y40	Z40	X41	Y41	Z41	X42	Y42	Z42	X43	Y43	Z43	X44	Y44	Z44	X45	Y45	Z45	X46	Y46	Z46	X47	Y47	Z47	X48	Y48	Z48	X49	Y49	Z49	X50	Y50	Z50	X51	Y51	Z51	

1	0.00000000	78.13824	495.09211	-47.60531	133.93023	444.01898	-72.36149	169.16335	100.19083	-62.56270	104.58910	63.45126	-88.08194	286.29903	58.98247	-55.40921	318.65229	97.82720	-115.63435	-244.49158	476.24490	-312.99074	-258.84511	371.89639	-314.28554	-478.15556	145.30078	-291.51712	-562.64196	138.31306	-258.83891	-405.20494	43.44552	-313.52056	-366.91429	53.56561	-251.83866	148.58571	330.77762	-44.69620	60.73121	435.27015	-31.18015	75.64323	323.07894	-27.94337	-328.50792	428.12475	-326.29524	-396.16731	325.96774	-329.38872	19.70229	808.55428	-20.59298	57.47026	701.10239	-27.31415	14.65883	662.21309	6.71225	-82.91799	769.91950	14.07595	-44.04754	659.56186	1.00562	-145.77175	723.31487	-369.21608	-170.22664	592.41350	-339.63836	-244.49245	750.32946	-316.74923	-268.83238	612.86923	-298.89568	-11.46574	947.26727	-67.36766	-211.26775	976.71959	-109.03953	-44.30537	915.35731	-315.51308	-232.74952	977.01801	-207.50351	-226.74544	1386.80418	-203.44760	-127.05461	1354.97014	-23.32616	-142.39597	1351.16895	-381.26287	-86.90630	1355.24113	-181.32558	-81.43806	1355.35677	-223.78059	-133.51154	1224.98566	47.52364	-243.68880	1033.52055	30.29671	-213.33666	1048.52848	93.40624	-174.94925	911.57119	107.45370	-182.08710	778.58691	124.18055	-194.51733	782.74476	159.64190	-94.68007	1242.05353	-436.48569	-105.52349	1000.87158	-406.80575	-59.24091	1033.08563	-462.15937	24.03863	960.41758	-412.72924	99.91069	823.71712	-384.93678	106.23219	826.50534	-419.31661	-87.39891	864.68784	-68.82117	-123.21405	847.11811	-271.40104	-78.11319	854.53457	-88.01449	-113.61190	855.02806	-250.72649	
2	0.01000000	91.94317	495.81789	-47.37494	146.22754	443.09838	-72.90847	172.63325	98.98487	-63.09325	106.20098	64.48304	-88.74760	288.01514	55.19279	-56.37540	321.20706	92.07787	-117.21408	-227.11539	474.96424	-312.77900	-244.35930	371.10695	-315.12215	-470.12979	151.02769	-292.02472	-554.48487	149.21317	-258.65956	-403.65319	44.57196	-313.35109	-364.12998	52.90973	-252.00506	158.96511	329.69701	-45.28307	73.83784	436.05167	-30.09066	86.30806	323.67262	-26.64468	-312.22601	429.44157	-325.91401	-383.15261	329.57544	-329.22479	34.30815	809.84301	-20.13485	71.24291	702.61905	-28.51309	29.62687	663.81462	7.70956	-67.68416	771.53554	15.92420	-29.25811	661.04688	3.11310	-130.89581	722.81751	-367.79076	-154.09434	591.47762	-339.09279	-229.21520	748.53180	-313.96229	-252.19905	610.76022	-296.71788	2.81379	948.73858	-66.00376	-197.09339	977.42267	-108.03042	-30.17618	915.51011	-313.64601	-218.48552	976.77723	-206.49632	-213.53022	1386.58825	-201.24335	-113.83218	1354.90098	-21.20382	-128.93045	1351.39112	-379.15305	-73.64086	1355.48062	-179.15536	-68.23897	1355.65436	-221.54212	-120.19246	1224.87835	49.49032	-230.18962	1033.52175	31.49479	-200.11392	1048.54461	94.86872	-162.68748	911.47925	109.62446	-170.80690	778.51145	126.87446	-183.28309	782.99393	162.25661	-81.29273	1242.28970	-434.39337	-92.85568	1001.18761	-404.78783	-46.25473	1033.22138	-460.04990	36.32169	960.20718	-410.35901	112.05402	823.41810	-382.37779	118.33419	826.15981	-416.67875	-72.91016	865.96296	-66.98322	-108.58081	847.09278	-269.46579	-63.79878	856.27683	-85.86609	-99.11053	855.21523	-248.39993	
3	0.02000000	105.70869	496.62900	-47.22875	158.38101	442.25239	-73.55821	175.80804	97.91593	-63.61412	107.64895	65.42860	-89.33368	289.56670	51.79173	-57.19853	323.54074	86.80547	-118.63377	-209.21393	473.59453	-312.76119	-229.37661	370.32598	-316.12145	-461.51885	156.92172	-292.59842	-545.47093	160.47838	-258.50297	-401.94659	45.92858	-313.18161	-361.23790	52.35095	-252.20665	169.14443	328.69065	-46.00563	86.82937	436.91423	-29.09834	96.84163	324.37463	-25.42385	-295.36581	430.78623	-325.59800	-369.54343	333.27957	-329.11425	48.97649	811.25752	-19.69342	85.27646	704.26307	-29.46091	44.65914	665.53267	8.69925	-52.39892	773.23877	17.81684	-14.39846	662.63671	5.20935	-115.83126	722.36024	-366.35059	-137.56529	590.53665	-338.65184	-213.79228	746.59060	-311.22193	-235.20860	608.49401	-294.69132	17.02311	950.27628	-64.55316	-182.99334	978.18742	-106.98402	-16.03333	915.71063	-311.72590	-204.25368	976.59217	-205.46307	-200.33521	1386.44287	-199.07748	-100.61380	1354.90335	-19.10377	-115.49783	1351.67916	-377.06608	-60.39469	1355.78933	-176.99797	-55.05083	1356.02606	-219.31898	-106.81455	1224.84831	51.42938	-216.63498	1033.57265	32.75003	-186.80261	1048.59896	96.35690	-150.24056	911.45144	111.78094	-159.27225	778.49893	129.54054	-171.77200	783.29006	164.84680	-67.90161	1242.59242	-432.31206	-80.26368	1001.56886	-402.81744	-33.36501	1033.41270	-458.00021	48.56651	960.04795	-408.06724	124.06844	823.13090	-379.91058	130.33263	825.83087	-414.14317	-58.49229	867.30309	-65.08146	-93.95964	847.12338	-267.47218	-49.56091	858.07442	-83.65757	-84.61839	855.44851	-246.04096	
4	0.03000000	119.35037	497.56376	-47.21656	170.23878	441.51098	-74.34659	178.47193	97.07731	-64.12254	108.81680	66.22268	-89.78441	290.83352	49.05743	-57.78630	325.48424	82.35978	-119.78795	-190.36537	472.05760	-313.08243	-213.46923	369.55835	-317.39578	-451.83761	163.11598	-293.30518	-534.84585	172.39118	-258.39763	-399.96888	47.73107	-313.00283	-358.12037	52.00936	-252.49330	178.92959	327.79272	-46.92632	99.56112	437.88707	-28.27615	107.08191	325.23396	-24.36168	-277.44245	432.16826	-325.40059	-354.83614	337.14401	-329.09761	63.72822	812.86221	-19.26966	99.76879	706.11438	-29.97379	59.75154	667.41918	9.67127	-37.05449	775.08629	19.78494	0.52693	664.39358	7.27935	-100.42469	721.96042	-364.89376	-120.32414	589.58194	-338.39189	-198.10110	744.38244	-308.56661	-217.57446	605.93315	-292.94966	31.10356	951.92864	-62.94867	-169.02621	979.05051	-105.87896	-1.85651	916.00162	-309.71193	-190.08995	976.50492	-204.38698	-187.17711	1386.42315	-196.98200	-87.40816	1355.03352	-17.04771	-102.12352	1352.08375	-375.02307	-47.18579	1356.21979	-174.86744	-41.88929	1356.52701	-217.12788	-93.33760	1224.95474	53.31729	-202.97754	1033.70807	34.10878	-173.33494	1048.72618	97.89633	-137.45513	911.53895	113.91420	-147.26524	778.59899	132.15514	-159.75081	783.66766	167.39229	-54.51648	1243.01224	-430.25664	-67.80666	1002.06628	-400.93828	-20.64626	1033.70443	-456.05934	60.73169	959.97628	-405.91934	135.85214	822.86398	-377.61442	142.14023	825.53027	-411.79499	-44.20290	868.75264	-63.07195	-79.35438	847.25556	-265.38247	-35.44315	859.95863	-81.34571	-70.14374	855.76848	-243.62287	
5	0.04000000	132.70469	498.58463	-47.33408	181.63961	440.84028	-75.21221	180.53263	96.49332	-64.62416	109.66225	66.83288	-90.08139	291.76588	47.09796	-58.11849	326.95431	78.89430	-120.64936	-170.33218	470.30235	-313.80328	-196.34125	368.80633	-318.97282	-440.76716	169.67563	-294.20273	-522.05677	185.07693	-258.37832	-397.63847	50.16579	-312.79386	-354.63791	52.03514	-252.93011	188.13577	326.97775	-47.99863	111.84090	438.92299	-27.66016	116.82259	326.21200	-23.53459	-258.14486	433.57030	-325.35416	-338.69377	341.17842	-329.19263	78.50533	814.62409	-18.83748	114.79270	708.17260	-29.97868	74.78400	669.42482	10.61649	-21.72504	777.08123	21.83481	15.39522	666.30629	9.30146	-84.59563	721.60415	-363.43843	-102.20436	588.60380	-338.34268	-182.06983	741.82444	-306.02248	-199.14125	602.98545	-291.58889	45.00844	953.71183	-61.15888	-155.23485	980.01106	-104.71839	12.36591	916.41507	-307.58604	-176.04356	976.53480	-203.26651	-174.07636	1386.55805	-194.97991	-74.23868	1355.32293	-15.05749	-88.82982	1352.63093	-373.04303	-34.03900	1356.79674	-172.78144	-28.78341	1357.18109	-214.98863	-79.76119	1225.22795	55.13705	-189.19281	1033.94017	35.59842	-159.68034	1048.95108	99.50727	-124.23794	911.77222	116.02015	-134.63478	778.83965	134.69926	-147.06511	784.14172	169.87804	-41.17254	1243.57359	-428.24838	-55.52592	1002.70669	-399.18889	-8.14456	1034.12318	-454.26038	72.76789	960.00614	-403.96047	147.33614	822.61852	-375.54919	153.68973	825.26193	-409.69306	-30.08728	870.32180	-60.94490	-64.77169	847.51651	-263.19313	-21.45329	861.92495	-78.91656	-55.70649	856.20398	-241.13116	
